# xmcd CD database file
#
# Track frame offsets:
#	150
#	27192
#	53455
#	85137
#	112797
#	154982
#	176535
#	198110
#	225855
#	266377
#	290972
#	317907
#
# Disc length: 4600 seconds
#
# Revision: 0
# Processed by: cddbd v1.4PL0 Copyright (c) Steve Scherf et al.
# Submitted via: CDex 1.50
#
DISCID=9111f60c
DTITLE=Moe Koffman - Devil's Brew
DYEAR=1996
DGENRE=Jazz
TTITLE0=Invitation
TTITLE1=On Green Dolphin Street
TTITLE2=Angel Eyes
TTITLE3=The Best Thing For You
TTITLE4=Devil's Brew
TTITLE5=Take Five
TTITLE6=Have You Met Mr. Ed?
TTITLE7=Blues for Clifford
TTITLE8=Killer Joe
TTITLE9=Mango Mama
TTITLE10=Autum Leaves
TTITLE11=Who Am I
EXTD=YEAR: 1996
EXTT0=
EXTT1=
EXTT2=
EXTT3=
EXTT4=
EXTT5=
EXTT6=
EXTT7=
EXTT8=
EXTT9=
EXTT10=
EXTT11=
PLAYORDER=
